<svg version="1.1" id="Layer_1" xmlns="http://www.w3.org/2000/svg" xmlns:xlink="http://www.w3.org/1999/xlink" x="0px" y="0px"
	 width="100%" viewBox="0 0 200 200" enable-background="new 0 0 200 200" xml:space="preserve">

<path fill="#000000" opacity="1.000000" stroke="none" 
	d="
M62.226612,152.973526 
	C62.184788,118.631378 62.142967,84.289230 62.353703,49.355034 
	C62.845802,48.535938 62.971478,48.257481 62.983288,47.927620 
	C80.359917,47.927620 97.736549,47.927620 115.433929,47.927620 
	C115.433929,56.719353 115.433929,65.142761 115.433929,74.055206 
	C123.851761,74.055206 131.953110,74.055206 140.619324,74.310257 
	C141.382187,74.787979 141.625198,74.937515 141.913208,75.013908 
	C141.913208,92.136131 141.913208,109.258347 141.913208,127.150276 
	C133.295975,127.150276 124.570335,127.150276 115.412323,127.116455 
	C114.979958,127.082626 115.058060,127.041565 115.212479,126.592255 
	C115.366905,108.907227 115.366905,91.671516 115.366905,74.202629 
	C106.603569,74.202629 98.314713,74.202629 89.743195,74.130920 
	C89.336533,74.376945 89.212532,74.694679 89.000427,75.472885 
	C88.861320,82.940056 88.810318,89.946747 88.373550,97.054619 
	C86.921616,101.859711 85.290154,106.595009 88.822357,111.508011 
	C88.885338,116.878464 88.885338,121.787903 88.885338,127.210648 
	C97.537376,127.210648 105.750420,127.210648 114.131042,127.408714 
	C114.617790,127.707802 114.936958,127.808815 115.256126,127.909836 
	C115.256126,136.328186 115.256126,144.746552 115.256126,153.842361 
	C97.981079,153.842361 80.966957,153.842361 63.430458,153.599121 
	C62.740391,153.122513 62.513233,152.995056 62.226612,152.973526 
z"/>
<path fill="#292929" opacity="1.000000" stroke="none" 
	d="
M62.675560,47.908699 
	C62.971478,48.257481 62.845802,48.535938 62.410282,48.890610 
	C62.265480,48.642078 62.316654,48.265926 62.675560,47.908699 
z"/>
<path fill="#292929" opacity="1.000000" stroke="none" 
	d="
M141.957275,74.723694 
	C141.625198,74.937515 141.382187,74.787979 141.082916,74.374069 
	C141.321564,74.266396 141.661469,74.349945 141.957275,74.723694 
z"/>
<path fill="#292929" opacity="1.000000" stroke="none" 
	d="
M115.345802,127.621391 
	C114.936958,127.808815 114.617790,127.707802 114.393967,127.297043 
	C114.678902,127.005394 114.868477,127.023476 115.058060,127.041565 
	C115.058060,127.041565 114.979958,127.082626 114.939240,127.069359 
	C115.077515,127.148376 115.256500,127.240662 115.345802,127.621391 
z"/>
<path fill="#292929" opacity="1.000000" stroke="none" 
	d="
M62.150528,153.249512 
	C62.513233,152.995056 62.740391,153.122513 62.965965,153.547226 
	C62.707382,153.667542 62.390915,153.596527 62.150528,153.249512 
z"/>
<path fill="#FFFFFF" opacity="1.000000" stroke="none" 
	d="
M115.212479,126.592255 
	C114.868477,127.023476 114.678902,127.005394 114.226387,127.098976 
	C105.750420,127.210648 97.537376,127.210648 88.885338,127.210648 
	C88.885338,121.787903 88.885338,116.878464 88.927780,111.050308 
	C88.899925,105.738869 88.829620,101.346153 88.759323,96.953430 
	C88.810318,89.946747 88.861320,82.940056 89.196732,75.387535 
	C89.745842,74.699539 89.927422,74.486511 90.025864,74.202629 
	C98.314713,74.202629 106.603569,74.202629 115.366905,74.202629 
	C115.366905,91.671516 115.366905,108.907227 115.212479,126.592255 
z"/>
<path fill="#292929" opacity="1.000000" stroke="none" 
	d="
M88.373550,97.054619 
	C88.829620,101.346153 88.899925,105.738869 88.864799,110.589294 
	C85.290154,106.595009 86.921616,101.859711 88.373550,97.054619 
z"/>
<path fill="#D5D5D5" opacity="1.000000" stroke="none" 
	d="
M89.743195,74.130920 
	C89.927422,74.486511 89.745842,74.699539 89.284828,74.927048 
	C89.212532,74.694679 89.336533,74.376945 89.743195,74.130920 
z"/>
</svg>